<svg xmlns="http://www.w3.org/2000/svg" xmlns:xlink="http://www.w3.org/1999/xlink" viewBox="0 85 240 60" preserveAspectRatio="xMidYMid meet" version="1.0"><defs><g/><clipPath id="49f63b2ffa"><path d="M 4 93 L 34 93 L 34 119 L 4 119 Z M 4 93 " clip-rule="nonzero"/></clipPath><clipPath id="37de55bc56"><path d="M 3.800781 110.398438 L 26.160156 88.210938 L 39.367188 101.519531 L 17.007812 123.707031 Z M 3.800781 110.398438 " clip-rule="nonzero"/></clipPath><clipPath id="c114631277"><path d="M 3.800781 110.398438 L 26.160156 88.210938 L 39.367188 101.519531 L 17.007812 123.707031 Z M 3.800781 110.398438 " clip-rule="nonzero"/></clipPath><clipPath id="a99fc249dd"><path d="M 3.808594 110.390625 L 26.414062 87.960938 L 39.429688 101.078125 L 16.824219 123.507812 Z M 3.808594 110.390625 " clip-rule="nonzero"/></clipPath></defs><g fill="#d1fe17" fill-opacity="1"><g transform="translate(13.944449, 132.15944)"><g><path d="M 1.328125 -13.921875 C 1.328125 -16.035156 1.734375 -18.03125 2.546875 -19.90625 C 3.347656 -21.738281 4.441406 -23.320312 5.828125 -24.65625 C 7.304688 -26 8.910156 -26.953125 10.640625 -27.515625 C 12.328125 -28.046875 14.125 -28.3125 16.03125 -28.3125 C 17.226562 -28.3125 18.429688 -28.1875 19.640625 -27.9375 C 20.835938 -27.65625 21.945312 -27.234375 22.96875 -26.671875 C 23.988281 -26.109375 24.90625 -25.382812 25.71875 -24.5 C 26.5 -23.582031 27.0625 -22.507812 27.40625 -21.28125 L 20.90625 -16.671875 C 20.40625 -17.691406 19.769531 -18.554688 19 -19.265625 C 18.1875 -19.972656 17.195312 -20.328125 16.03125 -20.328125 C 15.15625 -20.328125 14.378906 -20.148438 13.703125 -19.796875 C 13.035156 -19.441406 12.472656 -18.960938 12.015625 -18.359375 C 11.554688 -17.765625 11.203125 -17.097656 10.953125 -16.359375 C 10.703125 -15.578125 10.578125 -14.78125 10.578125 -13.96875 C 10.578125 -13.082031 10.703125 -12.253906 10.953125 -11.484375 C 11.160156 -10.703125 11.492188 -10.015625 11.953125 -9.421875 C 12.410156 -8.816406 12.992188 -8.335938 13.703125 -7.984375 C 14.410156 -7.640625 15.238281 -7.46875 16.1875 -7.46875 C 17.21875 -7.46875 18.171875 -7.785156 19.046875 -8.421875 C 19.929688 -9.046875 20.601562 -9.820312 21.0625 -10.75 L 27.515625 -6.09375 C 26.140625 -3.757812 24.484375 -2.082031 22.546875 -1.0625 C 20.566406 -0.0390625 18.238281 0.46875 15.5625 0.46875 C 13.375 0.46875 11.414062 0.117188 9.6875 -0.578125 C 7.914062 -1.253906 6.414062 -2.226562 5.1875 -3.5 C 3.945312 -4.757812 2.992188 -6.273438 2.328125 -8.046875 C 1.660156 -9.804688 1.328125 -11.765625 1.328125 -13.921875 Z M 1.328125 -13.921875 "/></g></g></g><g fill="#d1fe17" fill-opacity="1"><g transform="translate(42.416455, 132.15944)"><g><path d="M 1.859375 0 L 1.859375 -27.671875 L 11.328125 -27.671875 L 11.484375 -25.40625 C 12.253906 -26.394531 13.207031 -27.132812 14.34375 -27.625 C 15.46875 -28.113281 16.648438 -28.359375 17.890625 -28.359375 C 18.734375 -28.359375 19.5625 -28.238281 20.375 -28 C 21.1875 -27.75 21.945312 -27.394531 22.65625 -26.9375 C 23.320312 -26.445312 23.921875 -25.863281 24.453125 -25.1875 C 24.941406 -24.519531 25.296875 -23.765625 25.515625 -22.921875 L 18.84375 -16.671875 C 18.664062 -17.128906 18.453125 -17.601562 18.203125 -18.09375 C 17.921875 -18.550781 17.601562 -18.976562 17.25 -19.375 C 16.613281 -20.007812 15.890625 -20.328125 15.078125 -20.328125 C 14.546875 -20.328125 14.085938 -20.21875 13.703125 -20 C 13.316406 -19.789062 13 -19.523438 12.75 -19.203125 C 12.46875 -18.890625 12.238281 -18.554688 12.0625 -18.203125 C 11.882812 -17.847656 11.742188 -17.515625 11.640625 -17.203125 L 11.640625 0 Z M 1.859375 0 "/></g></g></g><g fill="#d1fe17" fill-opacity="1"><g transform="translate(65.80796, 132.15944)"><g><path d="M 16.25 -28.3125 C 17.59375 -28.3125 18.929688 -28.15625 20.265625 -27.84375 C 21.609375 -27.519531 22.8125 -27.003906 23.875 -26.296875 C 24.925781 -25.597656 25.785156 -24.703125 26.453125 -23.609375 C 27.085938 -22.515625 27.425781 -21.191406 27.46875 -19.640625 C 27.46875 -18.222656 27.1875 -16.984375 26.625 -15.921875 C 26.019531 -14.867188 25.257812 -13.972656 24.34375 -13.234375 C 23.394531 -12.492188 22.316406 -11.910156 21.109375 -11.484375 C 19.910156 -11.023438 18.695312 -10.691406 17.46875 -10.484375 C 16.4375 -10.304688 15.429688 -10.21875 14.453125 -10.21875 C 13.460938 -10.21875 12.472656 -10.179688 11.484375 -10.109375 C 11.867188 -9.296875 12.488281 -8.660156 13.34375 -8.203125 C 14.144531 -7.710938 15.128906 -7.46875 16.296875 -7.46875 C 17.316406 -7.46875 18.320312 -7.785156 19.3125 -8.421875 C 20.269531 -9.046875 20.976562 -9.820312 21.4375 -10.75 L 27.515625 -6.09375 C 26.140625 -3.757812 24.5 -2.082031 22.59375 -1.0625 C 20.6875 -0.0390625 18.394531 0.46875 15.71875 0.46875 C 13.5625 0.46875 11.601562 0.117188 9.84375 -0.578125 C 8.082031 -1.253906 6.582031 -2.226562 5.34375 -3.5 C 4.113281 -4.726562 3.160156 -6.242188 2.484375 -8.046875 C 1.816406 -9.804688 1.484375 -11.765625 1.484375 -13.921875 C 1.484375 -16.035156 1.851562 -17.972656 2.59375 -19.734375 C 3.332031 -21.503906 4.375 -23.023438 5.71875 -24.296875 C 7.019531 -25.566406 8.570312 -26.550781 10.375 -27.25 C 12.175781 -27.957031 14.132812 -28.3125 16.25 -28.3125 Z M 10.640625 -15.34375 C 11.023438 -15.34375 11.585938 -15.378906 12.328125 -15.453125 C 13.066406 -15.523438 13.828125 -15.679688 14.609375 -15.921875 C 15.378906 -16.140625 16.066406 -16.457031 16.671875 -16.875 C 17.265625 -17.300781 17.597656 -17.847656 17.671875 -18.515625 C 17.742188 -19.222656 17.535156 -19.71875 17.046875 -20 C 16.546875 -20.28125 15.976562 -20.421875 15.34375 -20.421875 C 14.039062 -20.390625 12.910156 -19.898438 11.953125 -18.953125 C 11.535156 -18.453125 11.203125 -17.867188 10.953125 -17.203125 C 10.703125 -16.492188 10.597656 -15.875 10.640625 -15.34375 Z M 10.640625 -15.34375 "/></g></g></g><g fill="#d1fe17" fill-opacity="1"><g transform="translate(94.756269, 132.15944)"><g><path d="M 15.875 -16.09375 C 15.875 -16.726562 15.835938 -17.328125 15.765625 -17.890625 C 15.703125 -18.421875 15.546875 -18.894531 15.296875 -19.3125 C 15.046875 -19.707031 14.707031 -20.023438 14.28125 -20.265625 C 13.820312 -20.515625 13.222656 -20.640625 12.484375 -20.640625 C 11.816406 -20.640625 11.179688 -20.535156 10.578125 -20.328125 C 9.984375 -20.109375 9.457031 -19.820312 9 -19.46875 C 8.5 -19.125 8.054688 -18.753906 7.671875 -18.359375 C 7.285156 -17.941406 6.953125 -17.519531 6.671875 -17.09375 L 2.375 -22.75 C 2.976562 -23.425781 3.648438 -24.082031 4.390625 -24.71875 C 5.097656 -25.351562 5.910156 -25.914062 6.828125 -26.40625 C 7.742188 -26.90625 8.765625 -27.3125 9.890625 -27.625 C 11.023438 -27.90625 12.296875 -28.046875 13.703125 -28.046875 C 16.035156 -28.046875 17.976562 -27.800781 19.53125 -27.3125 C 21.039062 -26.78125 22.257812 -25.984375 23.1875 -24.921875 C 24.101562 -23.867188 24.753906 -22.53125 25.140625 -20.90625 C 25.492188 -19.28125 25.671875 -17.359375 25.671875 -15.140625 L 25.671875 0 L 16.71875 0 L 16.1875 -2.59375 C 15.382812 -1.570312 14.453125 -0.832031 13.390625 -0.375 C 12.328125 0.0820312 11.234375 0.3125 10.109375 0.3125 C 8.984375 0.3125 7.941406 0.132812 6.984375 -0.21875 C 5.992188 -0.5625 5.113281 -1.140625 4.34375 -1.953125 C 2.789062 -3.617188 2.066406 -5.71875 2.171875 -8.25 C 2.347656 -10.9375 3.28125 -12.914062 4.96875 -14.1875 C 6.632812 -15.414062 8.734375 -16.03125 11.265625 -16.03125 C 12.046875 -16.03125 12.820312 -15.960938 13.59375 -15.828125 C 14.34375 -15.679688 15.101562 -15.484375 15.875 -15.234375 Z M 15.875 -10 C 15.414062 -10.207031 14.832031 -10.3125 14.125 -10.3125 C 13.425781 -10.3125 12.8125 -10.191406 12.28125 -9.953125 C 11.71875 -9.703125 11.4375 -9.3125 11.4375 -8.78125 C 11.4375 -8.1875 11.695312 -7.75 12.21875 -7.46875 C 12.71875 -7.144531 13.285156 -6.984375 13.921875 -6.984375 C 14.734375 -6.984375 15.382812 -7.175781 15.875 -7.5625 Z M 15.875 -10 "/></g></g></g><g fill="#d1fe17" fill-opacity="1"><g transform="translate(122.222763, 132.15944)"><g><path d="M 31.96875 -25.140625 L 16.875 2.328125 L 15.078125 2.328125 L 0 -24.984375 L 9.578125 -29.15625 L 16.1875 -14.125 L 22.8125 -29.15625 Z M 31.96875 -25.140625 "/></g></g></g><g fill="#d1fe17" fill-opacity="1"><g transform="translate(154.18762, 132.15944)"><g><path d="M 12.015625 0 L 2.21875 0 L 2.21875 -27.671875 L 12.015625 -27.671875 Z M 7.09375 -42.125 C 7.800781 -42.125 8.488281 -42.035156 9.15625 -41.859375 C 9.789062 -41.648438 10.375 -41.332031 10.90625 -40.90625 C 11.394531 -40.488281 11.816406 -39.960938 12.171875 -39.328125 C 12.484375 -38.691406 12.660156 -37.929688 12.703125 -37.046875 C 12.734375 -36.023438 12.59375 -35.160156 12.28125 -34.453125 C 11.957031 -33.710938 11.53125 -33.113281 11 -32.65625 C 10.4375 -32.15625 9.804688 -31.800781 9.109375 -31.59375 C 8.359375 -31.382812 7.613281 -31.28125 6.875 -31.28125 C 6.132812 -31.3125 5.429688 -31.46875 4.765625 -31.75 C 4.054688 -32 3.457031 -32.367188 2.96875 -32.859375 C 2.4375 -33.359375 2.046875 -33.976562 1.796875 -34.71875 C 1.515625 -35.457031 1.425781 -36.320312 1.53125 -37.3125 C 1.601562 -38.15625 1.816406 -38.878906 2.171875 -39.484375 C 2.484375 -40.078125 2.90625 -40.570312 3.4375 -40.96875 C 3.9375 -41.351562 4.503906 -41.648438 5.140625 -41.859375 C 5.773438 -42.035156 6.425781 -42.125 7.09375 -42.125 Z M 7.09375 -42.125 "/></g></g></g><g fill="#d1fe17" fill-opacity="1"><g transform="translate(167.841484, 132.15944)"><g><path d="M 1.484375 -14.125 C 1.484375 -16 1.726562 -17.800781 2.21875 -19.53125 C 2.71875 -21.21875 3.476562 -22.71875 4.5 -24.03125 C 5.488281 -25.332031 6.738281 -26.375 8.25 -27.15625 C 9.738281 -27.925781 11.488281 -28.3125 13.5 -28.3125 C 14.09375 -28.3125 14.742188 -28.257812 15.453125 -28.15625 C 16.160156 -28.050781 16.863281 -27.890625 17.5625 -27.671875 C 18.269531 -27.429688 18.925781 -27.132812 19.53125 -26.78125 C 20.125 -26.394531 20.582031 -25.9375 20.90625 -25.40625 L 20.90625 -33.34375 L 30.6875 -33.34375 L 30.6875 0 L 21.4375 0 L 21.28125 -2.171875 C 20.75 -1.566406 20.164062 -1.085938 19.53125 -0.734375 C 18.894531 -0.390625 18.257812 -0.128906 17.625 0.046875 C 16.988281 0.222656 16.367188 0.332031 15.765625 0.375 C 15.171875 0.4375 14.625 0.46875 14.125 0.46875 C 12.007812 0.46875 10.160156 0.0664062 8.578125 -0.734375 C 6.984375 -1.515625 5.675781 -2.578125 4.65625 -3.921875 C 3.59375 -5.222656 2.800781 -6.773438 2.28125 -8.578125 C 1.75 -10.335938 1.484375 -12.1875 1.484375 -14.125 Z M 10.84375 -13.96875 C 10.84375 -13.125 10.953125 -12.3125 11.171875 -11.53125 C 11.378906 -10.757812 11.710938 -10.070312 12.171875 -9.46875 C 12.628906 -8.832031 13.191406 -8.335938 13.859375 -7.984375 C 14.535156 -7.640625 15.347656 -7.46875 16.296875 -7.46875 C 17.179688 -7.46875 18.066406 -7.675781 18.953125 -8.09375 C 19.796875 -8.476562 20.445312 -9.023438 20.90625 -9.734375 L 20.90625 -17.46875 C 20.375 -18.34375 19.703125 -19.046875 18.890625 -19.578125 C 18.078125 -20.078125 17.144531 -20.328125 16.09375 -20.328125 C 15.207031 -20.328125 14.445312 -20.148438 13.8125 -19.796875 C 13.144531 -19.441406 12.597656 -18.960938 12.171875 -18.359375 C 11.710938 -17.765625 11.378906 -17.097656 11.171875 -16.359375 C 10.953125 -15.578125 10.84375 -14.78125 10.84375 -13.96875 Z M 10.84375 -13.96875 "/></g></g></g><g fill="#d1fe17" fill-opacity="1"><g transform="translate(200.811853, 132.15944)"><g><path d="M 10.15625 -29.15625 L 16.671875 -14.921875 L 22.546875 -29.046875 L 31.703125 -25.140625 L 14.875 8.78125 L 6.34375 4.28125 L 11.375 -5.140625 L 0.640625 -24.984375 Z M 10.15625 -29.15625 "/></g></g></g><g clip-path="url(#49f63b2ffa)"><g clip-path="url(#37de55bc56)"><g clip-path="url(#c114631277)"><g clip-path="url(#a99fc249dd)"><path fill="#d1fe17" d="M 6.523438 111.109375 C 8.1875 111.128906 9.847656 111.191406 11.507812 111.15625 C 12.40625 111.136719 13.125 110.316406 13.136719 109.414062 C 13.140625 109.085938 13.050781 108.71875 12.894531 108.429688 C 12.34375 107.433594 11.746094 106.460938 11.171875 105.484375 C 10.363281 105.597656 9.921875 105.347656 9.886719 104.769531 C 9.855469 104.285156 10.21875 103.894531 10.703125 103.886719 C 11.265625 103.878906 11.5625 104.28125 11.515625 104.992188 C 12.710938 105.453125 13.90625 105.933594 15.117188 106.367188 C 16.53125 106.871094 17.832031 105.734375 17.570312 104.257812 C 17.546875 104.140625 17.519531 104.023438 17.492188 103.90625 C 17.195312 102.671875 16.902344 101.4375 16.640625 100.359375 C 16.273438 100.132812 15.957031 100.015625 15.75 99.792969 C 15.492188 99.515625 15.519531 99.152344 15.769531 98.847656 C 16.042969 98.527344 16.386719 98.417969 16.777344 98.609375 C 17.136719 98.789062 17.34375 99.113281 17.214844 99.496094 C 17.09375 99.851562 17.257812 99.988281 17.492188 100.164062 C 18.414062 100.855469 19.335938 101.550781 20.246094 102.253906 C 20.859375 102.730469 21.515625 102.914062 22.253906 102.589844 C 23.027344 102.246094 23.351562 101.621094 23.386719 100.800781 C 23.433594 99.601562 23.503906 98.402344 23.558594 97.3125 C 23.289062 97.015625 23.023438 96.808594 22.875 96.535156 C 22.789062 96.375 22.847656 96.085938 22.9375 95.902344 C 23.15625 95.453125 23.726562 95.351562 24.132812 95.648438 C 24.570312 95.972656 24.582031 96.453125 24.128906 97.015625 C 24.832031 97.988281 25.496094 99.011719 26.265625 99.945312 C 27.121094 100.980469 28.726562 100.738281 29.28125 99.507812 C 29.945312 98.050781 30.550781 96.5625 31.175781 95.097656 C 30.589844 94.496094 30.519531 93.964844 30.957031 93.605469 C 31.304688 93.316406 31.847656 93.367188 32.117188 93.71875 C 32.503906 94.21875 32.363281 94.65625 31.65625 95.109375 C 32.3125 99.007812 32.976562 102.914062 33.636719 106.828125 C 31.84375 106.902344 30.246094 107.53125 28.730469 108.304688 C 26.890625 109.238281 25.074219 110.25 23.339844 111.371094 C 21.082031 112.824219 18.992188 114.511719 17.25 116.589844 C 17.058594 116.816406 16.882812 117.058594 16.71875 117.308594 C 16.558594 117.558594 16.421875 117.824219 16.25 118.117188 C 15.402344 117.554688 14.558594 116.996094 13.714844 116.433594 C 11.367188 114.878906 9.019531 113.324219 6.675781 111.765625 C 6.511719 111.65625 6.394531 111.558594 6.171875 111.71875 C 5.6875 112.074219 5.191406 111.949219 4.929688 111.453125 C 4.703125 111.027344 4.878906 110.546875 5.34375 110.335938 C 5.804688 110.128906 6.269531 110.363281 6.460938 110.90625 C 6.480469 110.960938 6.496094 111.019531 6.523438 111.109375 " fill-opacity="1" fill-rule="nonzero"/></g></g></g></g></svg>